<?xml version="1.0" standalone="no"?>
<!DOCTYPE svg PUBLIC "-//W3C//DTD SVG 20010904//EN"
 "http://www.w3.org/TR/2001/REC-SVG-20010904/DTD/svg10.dtd">
<svg version="1.0" xmlns="http://www.w3.org/2000/svg"
 width="432.000000pt" height="360.000000pt" viewBox="0 0 432.000000 360.000000"
 preserveAspectRatio="xMidYMid meet">

<g transform="translate(0.000000,360.000000) scale(0.100000,-0.100000)"
fill="#000000" stroke="none">
<path d="M2094 2951 c-48 -30 -64 -59 -64 -120 0 -50 3 -57 41 -94 40 -38 42
-41 42 -103 l1 -65 -164 -3 c-240 -6 -373 -40 -537 -138 -118 -70 -264 -231
-331 -364 -19 -37 -26 -42 -66 -47 -107 -15 -207 -90 -258 -195 -30 -60 -33
-75 -33 -157 0 -76 4 -98 26 -146 15 -31 43 -74 63 -96 44 -49 139 -101 200
-109 44 -6 47 -9 82 -72 49 -90 111 -168 192 -243 163 -150 367 -229 591 -229
l100 0 28 -42 c89 -133 333 -125 404 14 41 80 10 163 -79 215 -40 24 -58 28
-122 28 -96 0 -159 -28 -204 -92 l-31 -44 -105 7 c-139 9 -235 34 -349 91
-165 83 -316 249 -383 421 -178 458 79 958 557 1082 64 17 115 22 250 23 l170
2 0 -63 c0 -73 -1 -77 -36 -85 -39 -10 -92 -49 -117 -88 l-23 -36 -110 -2
c-61 -1 -131 -6 -157 -12 -134 -30 -280 -143 -346 -268 -63 -121 -81 -251 -51
-379 45 -189 211 -359 395 -401 60 -14 920 -14 980 0 184 42 350 212 395 401
30 128 12 258 -51 379 -66 125 -212 238 -346 268 -26 6 -96 11 -157 12 l-110
2 -23 36 c-26 40 -80 80 -120 88 -32 6 -34 12 -34 88 l1 60 170 -2 c135 -1
186 -6 250 -23 153 -39 275 -111 386 -226 80 -84 130 -159 170 -260 48 -121
59 -200 59 -441 l0 -216 55 6 c68 7 163 56 211 110 20 22 48 65 63 96 22 48
26 69 26 146 0 76 -5 99 -27 146 -14 31 -42 74 -62 96 -44 50 -139 101 -201
109 -42 6 -48 11 -67 48 -67 133 -213 294 -331 364 -164 98 -297 132 -536 138
l-165 3 -1 63 c-2 62 -1 64 42 104 41 38 43 43 43 96 0 41 -5 62 -21 82 -44
56 -118 72 -175 37z m-274 -1136 c30 -32 29 -89 -1 -121 -17 -18 -33 -24 -64
-24 -54 0 -87 32 -87 85 0 82 96 120 152 60z m808 2 c30 -28 30 -92 0 -124
-31 -33 -96 -32 -127 1 -31 33 -31 89 -1 121 36 38 87 39 128 2z m-249 -299
c-29 -103 -150 -164 -273 -138 -86 18 -145 67 -165 138 l-10 32 229 0 229 0
-10 -32z"/>
</g>
</svg>
