<?xml version="1.0" standalone="no"?>
<!DOCTYPE svg PUBLIC "-//W3C//DTD SVG 20010904//EN"
 "http://www.w3.org/TR/2001/REC-SVG-20010904/DTD/svg10.dtd">
<svg version="1.0" xmlns="http://www.w3.org/2000/svg"
 width="227.000000pt" height="222.000000pt" viewBox="0 0 227.000000 222.000000"
 preserveAspectRatio="xMidYMid meet">

<g transform="translate(0.000000,222.000000) scale(0.100000,-0.100000)"
fill="#000000" stroke="none">
<path d="M1045 2192 c-79 -38 -125 -112 -125 -202 0 -84 44 -160 113 -196 24
-13 27 -20 27 -69 l0 -55 -299 0 -299 0 -64 -33 c-89 -46 -135 -114 -150 -220
l-11 -77 -73 0 c-68 0 -76 -2 -109 -31 -51 -45 -57 -78 -53 -301 3 -180 5
-199 24 -224 40 -54 67 -67 142 -68 l70 -1 7 -55 c10 -82 41 -145 95 -193 45
-41 126 -77 171 -77 23 0 23 1 8 -200 -18 -242 -12 -242 280 10 l220 190 379
0 c431 0 448 2 527 72 56 49 92 120 101 198 l6 55 67 1 c83 1 124 22 151 79
18 37 20 62 20 233 0 213 -5 240 -59 285 -29 24 -41 27 -106 27 l-73 0 -7 62
c-13 110 -61 186 -146 233 l-54 30 -305 5 -305 5 -3 50 c-2 49 -1 50 42 77 25
14 57 46 73 69 25 37 28 52 28 119 0 67 -4 82 -28 118 -43 65 -97 96 -176 100
-49 2 -76 -2 -106 -16z m775 -634 c24 -13 58 -40 74 -61 l31 -39 3 -409 c2
-385 2 -412 -16 -453 -24 -53 -72 -91 -132 -105 -27 -6 -200 -11 -423 -11
l-379 0 -179 -156 c-99 -86 -182 -154 -184 -152 -2 2 1 65 7 141 12 158 9 167
-56 167 -94 0 -171 41 -206 110 -19 37 -20 60 -20 439 0 258 4 410 11 428 15
40 57 82 104 104 38 17 78 19 680 19 l641 0 44 -22z"/>
<path d="M687 1326 c-101 -37 -144 -143 -97 -235 51 -102 174 -127 260 -55 42
36 60 74 60 130 0 118 -114 200 -223 160z"/>
<path d="M1475 1329 c-67 -20 -115 -89 -115 -162 0 -183 246 -238 324 -73 41
88 4 184 -89 227 -44 20 -74 22 -120 8z"/>
<path d="M880 832 c-16 -5 -40 -31 -40 -44 0 -17 49 -53 120 -87 71 -34 80
-36 176 -36 101 0 103 0 190 45 94 48 116 69 98 97 -18 29 -49 33 -85 12 -93
-53 -117 -62 -175 -67 -83 -6 -120 2 -186 41 -66 41 -79 45 -98 39z"/>
</g>
</svg>
