<?xml version="1.0" encoding="utf-8"?>
<!-- Generator: Adobe Illustrator 22.1.0, SVG Export Plug-In . SVG Version: 6.00 Build 0)  -->
<svg version="1.1" id="Layer_1" xmlns="http://www.w3.org/2000/svg" xmlns:xlink="http://www.w3.org/1999/xlink" x="0px" y="0px"
	 viewBox="0 0 134.7 127.7" style="enable-background:new 0 0 134.7 127.7;" xml:space="preserve">
<style type="text/css">
	.st0{fill:#089E9A;}
</style>
<title>Artboard 1</title>
<path class="st0" d="M75.8,75.9c0.2-0.1,0.4-0.1,0.4-0.1c1.5-5.3,5.2-9.2,8.6-13.2c4.1-4.8,4.6-9-0.4-14.2
	c-4.3-4.2-6.2-10.3-5.1-16.2c1.5-8.5,9.3-14.1,18.3-13.1c11,1.2,19.1,7.2,25,16.1c5.5,8.2,7.6,17.6,8.8,27.3c1.4,11-0.6,22.2-5.9,32
	c-4.9,9.3-12.8,13.3-22.8,13.8c-8.3,0.4-15.2-6.3-16.1-15.2c-0.3-3.6,0.2-7.2,1.4-10.6c0.9-2.3,1.6-4.7,2-7.1
	c0.1-1.1,0.2-2.2,0.1-3.3c-0.2-2.4-1.4-3-3.4-1.6c-4.1,3-7.3,7-9.3,11.6c-1.4,2.9-2,6.2-2,9.4c0.1,10.8,0,21.5,0.1,32.3
	c0,1.6-0.4,2.1-2.1,2.1c-3.1-0.1-3.1,0-3.1-3c0-39.9,0-79.7,0-119.6c0-0.7-0.5-1.9,0.5-2.1c1.4-0.3,2.9-0.3,4.3,0.1
	c0.5,0.2,0.3,1,0.3,1.5c0,4.3,0,8.5,0,12.8c0,19.4,0,38.9,0,58.3C75.5,74.6,75.2,75.3,75.8,75.9z"/>
<path class="st0" d="M58,73.8v-2.2c0-22.7,0-45.5,0-68.3c0-0.7-0.6-1.9,0.5-2.1C60,0.9,61.5,1,62.9,1.3c0.1,0,0.2,0.5,0.2,0.7
	c0,0.5,0,1,0,1.4c0,40,0,79.9,0,119.8c0,0.8,0.5,2.2-0.4,2.4c-1.4,0.3-2.9,0.3-4.3,0c-0.8-0.1-0.4-1.2-0.4-1.8
	c0-11.1-0.3-22.2,0.1-33.3c0.2-7.1-2.7-12.3-7.3-17.1c-1.1-1.1-2.3-2.2-3.6-3.1c-1.7-1.2-2.8-0.6-3.1,1.4c-0.2,2.4,0.1,4.9,0.9,7.1
	c1,2.8,1.9,5.6,2.5,8.5c1.4,8.4-2.4,16.3-9.5,19.5c-1.5,0.8-3.2,1.2-5,1.2c-10.1-0.1-18.4-3.5-23.7-12.7C3,84.4,1.2,72.5,3.2,59.9
	c1.2-7.5,3-14.9,6.6-21.6c5.2-9.5,12.9-16.1,23.6-18.7c6.7-1.6,13-0.4,17.8,4.9c5.7,6.3,5.3,16-0.5,22.9c-0.6,0.7-1.2,1.5-1.9,2.2
	c-3.6,3.9-3,7.7-0.6,11.5c0.1,0.2,0.3,0.5,0.5,0.7c1.7,1.9,3.4,3.8,5,5.8c1.5,2,2.7,4.1,3.7,6.3C57.7,73.9,57.9,73.8,58,73.8z"/>
</svg>
