<?xml version="1.0" standalone="no"?>
<!DOCTYPE svg PUBLIC "-//W3C//DTD SVG 20010904//EN"
 "http://www.w3.org/TR/2001/REC-SVG-20010904/DTD/svg10.dtd">
<svg version="1.0" xmlns="http://www.w3.org/2000/svg"
 width="64.000000pt" height="64.000000pt" viewBox="0 0 64.000000 64.000000"
 preserveAspectRatio="xMidYMid meet">

<g transform="translate(0.000000,64.000000) scale(0.100000,-0.100000)"
fill="#000000" stroke="none">
<path d="M191 618 c0 -12 191 -157 217 -166 7 -2 12 3 12 11 0 15 -201 167
-220 167 -6 0 -10 -6 -9 -12z"/>
<path d="M83 468 c-40 -28 -73 -57 -73 -64 0 -11 28 -14 138 -14 145 0 162 -5
162 -45 0 -40 -17 -45 -162 -45 -116 0 -138 -2 -138 -15 0 -13 23 -15 143 -15
130 0 145 2 165 20 30 28 30 82 0 110 -19 18 -35 20 -136 20 l-115 0 43 31 42
31 34 -18 c59 -32 57 3 -3 38 -28 16 -29 16 -100 -34z"/>
<path d="M385 410 c-10 -15 11 -19 115 -22 l95 -3 3 -92 3 -93 -266 0 -265 0
0 -74 c0 -58 4 -79 19 -97 19 -24 22 -24 238 -27 139 -2 231 1 255 8 52 15 61
50 57 229 -5 181 -5 181 -150 181 -55 0 -101 -4 -104 -10z m215 -270 l0 -30
-250 0 -250 0 0 30 0 30 250 0 250 0 0 -30z m0 -75 c0 -29 -39 -35 -244 -35
-206 0 -256 7 -256 35 0 13 33 15 250 15 213 0 250 -2 250 -15z"/>
</g>
</svg>
