<?xml version="1.0" standalone="no"?>
<!DOCTYPE svg PUBLIC "-//W3C//DTD SVG 20010904//EN"
 "http://www.w3.org/TR/2001/REC-SVG-20010904/DTD/svg10.dtd">
<svg version="1.0" xmlns="http://www.w3.org/2000/svg"
 width="512.000000pt" height="512.000000pt" viewBox="0 0 512.000000 512.000000"
 preserveAspectRatio="xMidYMid meet">

<g transform="translate(0.000000,512.000000) scale(0.100000,-0.100000)"
fill="#000000" stroke="none">
<path d="M2505 5015 c-25 -24 -25 -26 -25 -215 0 -189 0 -191 25 -215 15 -16
36 -25 55 -25 19 0 40 9 55 25 25 24 25 26 25 215 0 189 0 191 -25 215 -15 16
-36 25 -55 25 -19 0 -40 -9 -55 -25z"/>
<path d="M1720 4682 c-53 -54 -42 -78 118 -234 102 -101 123 -118 151 -118 43
0 81 38 81 81 0 28 -17 50 -127 161 -149 148 -172 160 -223 110z"/>
<path d="M3305 4691 c-16 -10 -81 -70 -142 -133 -102 -104 -113 -118 -113
-151 0 -49 28 -77 77 -77 33 0 47 11 165 128 148 148 160 171 110 222 -35 35
-55 37 -97 11z"/>
<path d="M2407 4310 c-382 -69 -681 -360 -754 -734 -9 -44 -17 -82 -17 -83 -1
-1 -51 7 -111 18 -314 57 -858 103 -941 80 -59 -16 -118 -63 -151 -118 -26
-44 -28 -58 -32 -165 -2 -86 -6 -118 -16 -118 -7 0 -44 -16 -82 -35 -86 -43
-144 -103 -186 -193 l-32 -67 0 -1216 0 -1215 37 -76 c45 -91 103 -147 196
-191 l67 -32 2175 0 2175 0 67 32 c93 44 151 100 196 191 l37 76 3 1189 c3
1297 4 1253 -53 1352 -48 82 -185 185 -246 185 -15 0 -17 17 -21 118 -4 128
-19 171 -75 223 -62 58 -86 64 -243 63 -221 -2 -579 -39 -813 -84 -55 -11
-102 -18 -103 -17 -2 1 -10 38 -19 82 -72 349 -332 626 -672 716 -87 24 -304
34 -386 19z m301 -166 c193 -39 355 -144 468 -300 230 -320 181 -767 -113
-1021 -182 -157 -240 -256 -259 -447 -9 -92 -38 -126 -112 -134 l-52 -5 0 296
0 296 -155 186 -156 185 218 0 217 0 -71 -72 c-81 -84 -96 -108 -87 -143 8
-34 41 -55 83 -55 31 0 49 15 179 143 79 78 150 155 159 171 17 33 11 68 -17
96 -19 19 -35 20 -450 20 l-431 0 -24 -25 c-50 -50 -43 -63 175 -324 l200
-239 0 -266 0 -266 -37 0 c-85 0 -118 41 -133 163 -20 163 -80 269 -225 394
-196 170 -285 354 -286 594 -1 126 18 210 71 326 148 320 497 497 838 427z
m-1843 -714 c258 -19 422 -40 741 -97 30 -5 32 -8 39 -62 25 -199 129 -401
277 -539 157 -145 185 -177 207 -237 13 -33 26 -94 31 -135 9 -95 30 -144 83
-198 68 -69 117 -82 315 -82 186 0 219 6 288 53 74 49 103 105 119 227 21 159
47 203 212 347 88 78 161 173 214 281 41 84 89 249 89 307 l0 31 123 23 c229
43 677 91 848 91 43 0 55 -5 80 -29 l29 -29 0 -1302 0 -1302 -28 -27 c-27 -27
-30 -28 -192 -35 -531 -23 -1097 -131 -1562 -300 -70 -25 -129 -46 -132 -46
-3 0 -6 313 -6 695 l0 695 55 0 c67 0 105 29 105 80 0 19 -9 40 -25 55 -24 25
-26 25 -215 25 -189 0 -191 0 -215 -25 -33 -32 -33 -78 0 -110 20 -21 34 -25
80 -25 l55 0 0 -695 c0 -382 -3 -695 -6 -695 -3 0 -67 22 -142 49 -479 172
-1014 274 -1552 297 -162 7 -165 8 -192 35 l-28 27 0 1302 0 1302 29 29 c34
34 51 35 276 19z m3949 -466 c70 -72 66 -1 66 -1282 0 -877 -3 -1165 -12
-1196 -16 -55 -99 -138 -154 -154 -31 -9 -247 -12 -870 -11 -940 1 -894 -6
-549 79 343 85 647 130 1032 154 209 13 224 15 267 40 25 14 57 41 70 59 59
77 56 19 56 1249 l0 1129 30 -16 c16 -8 45 -31 64 -51z m-4414 -1071 c1 -916
3 -1135 14 -1166 20 -54 60 -103 112 -133 43 -26 58 -28 262 -40 322 -20 556
-50 847 -110 128 -26 404 -96 445 -113 39 -15 -1620 -15 -1674 1 -55 16 -138
99 -154 154 -17 57 -17 2328 -1 2385 7 21 25 54 42 75 28 34 82 74 100 74 4 0
7 -507 7 -1127z"/>
<path d="M825 3095 c-41 -40 -30 -103 22 -123 15 -6 106 -19 202 -28 170 -16
174 -16 200 4 21 15 26 27 26 62 0 67 -21 77 -204 95 -207 20 -217 20 -246
-10z"/>
<path d="M825 2765 c-27 -26 -31 -51 -14 -89 17 -36 46 -44 228 -61 91 -8 229
-25 308 -36 134 -20 145 -20 168 -5 38 25 51 59 35 96 -7 17 -21 35 -30 40
-35 19 -519 80 -633 80 -27 0 -45 -7 -62 -25z"/>
<path d="M825 2205 c-32 -31 -33 -78 -2 -109 20 -20 38 -24 113 -30 387 -31
806 -107 1133 -207 84 -26 116 -24 146 6 31 30 32 66 3 100 -18 20 -54 35
-163 66 -312 88 -641 151 -970 184 -203 21 -231 20 -260 -10z"/>
<path d="M4135 2219 c-356 -31 -784 -110 -1103 -205 -121 -35 -141 -44 -152
-65 -28 -51 6 -119 58 -119 15 0 89 18 166 40 334 95 685 158 1056 189 106 9
117 12 137 36 29 33 29 67 1 99 -30 32 -45 35 -163 25z"/>
<path d="M825 1815 c-32 -31 -33 -78 -2 -109 19 -19 38 -24 108 -30 364 -29
712 -89 1029 -177 63 -17 132 -36 152 -41 21 -6 49 -7 63 -4 24 6 55 50 55 79
0 33 -41 65 -107 85 -327 99 -745 179 -1103 212 -160 14 -167 13 -195 -15z"/>
<path d="M4130 1833 c-122 -10 -393 -47 -540 -74 -319 -58 -674 -154 -702
-190 -26 -31 -23 -75 7 -105 30 -30 58 -29 188 10 322 98 736 173 1101 201 75
6 93 11 112 31 32 31 31 77 -1 109 -25 26 -42 28 -165 18z"/>
<path d="M825 1415 c-32 -31 -33 -78 -2 -109 20 -19 38 -25 113 -30 343 -28
821 -118 1134 -216 86 -26 121 -26 148 3 30 32 29 87 0 114 -55 49 -580 174
-933 222 -151 20 -356 41 -408 41 -16 0 -38 -10 -52 -25z"/>
<path d="M4125 1423 c-368 -30 -775 -104 -1102 -198 -127 -37 -153 -55 -153
-107 0 -40 40 -78 81 -78 17 0 95 18 173 40 334 94 697 158 1060 186 75 6 93
10 113 30 31 31 30 78 -2 109 -25 26 -50 28 -170 18z"/>
</g>
</svg>
