<?xml version="1.0" standalone="no"?>
<!DOCTYPE svg PUBLIC "-//W3C//DTD SVG 20010904//EN"
 "http://www.w3.org/TR/2001/REC-SVG-20010904/DTD/svg10.dtd">
<svg version="1.0" xmlns="http://www.w3.org/2000/svg"
 width="512.000000pt" height="512.000000pt" viewBox="0 0 512.000000 512.000000"
 preserveAspectRatio="xMidYMid meet">

<g transform="translate(0.000000,512.000000) scale(0.100000,-0.100000)"
fill="#000000" stroke="none">
<path d="M1655 5095 c-45 -44 -35 -65 86 -193 658 -694 854 -1286 601 -1817
l-50 -103 -153 0 c-225 0 -393 -40 -547 -131 l-53 -31 -87 76 c-295 258 -692
427 -1009 428 -108 1 -112 0 -154 -29 -117 -82 -140 -222 -52 -324 49 -58 93
-77 203 -90 267 -33 511 -142 713 -321 45 -40 47 -44 32 -60 -23 -26 -121 -75
-184 -94 -101 -30 -213 -38 -329 -24 -59 7 -126 12 -149 11 -74 -3 -147 -54
-185 -127 -29 -58 -23 -158 15 -215 61 -91 165 -122 420 -124 l148 -1 -6 -70
c-22 -254 -87 -450 -212 -638 -49 -75 -63 -113 -63 -173 1 -111 109 -215 224
-215 92 0 161 52 242 183 170 273 255 574 258 908 l1 156 60 41 c33 23 123
104 201 180 119 118 152 145 215 175 72 35 166 59 158 41 -2 -5 -19 -37 -37
-72 -56 -107 -119 -271 -151 -392 -54 -204 -64 -287 -65 -508 -1 -202 -1 -204
23 -223 32 -26 67 -24 96 6 24 23 25 28 25 172 0 229 28 410 95 611 54 161
137 325 293 574 169 269 222 371 263 497 105 329 66 671 -120 1046 -133 269
-375 592 -619 828 -78 75 -107 83 -147 42z m-1082 -1930 c306 -54 573 -191
832 -428 115 -106 115 -106 249 -23 110 67 227 102 393 117 150 14 154 11 101
-73 -43 -69 -57 -78 -119 -78 -62 0 -187 -38 -272 -82 -68 -36 -107 -67 -232
-189 -85 -83 -181 -166 -222 -192 -39 -25 -77 -56 -84 -68 -8 -16 -9 -53 -5
-123 12 -185 -21 -429 -83 -616 -52 -153 -184 -395 -230 -419 -11 -6 -29 -11
-41 -11 -27 0 -70 43 -70 71 0 11 25 62 57 112 142 231 212 470 216 742 2 110
0 125 -18 145 -35 39 -49 41 -159 30 -73 -7 -138 -7 -218 0 -170 16 -198 29
-198 98 0 34 29 64 62 65 13 0 75 -5 138 -12 260 -27 493 40 655 190 55 51 67
94 38 140 -28 44 -163 160 -267 230 -200 135 -408 213 -636 238 -74 8 -88 13
-108 37 -17 19 -22 34 -17 53 15 63 73 74 238 46z"/>
<path d="M2175 5095 c-14 -13 -25 -35 -25 -48 0 -15 40 -73 113 -164 238 -297
389 -559 481 -836 100 -303 111 -615 31 -890 -51 -176 -121 -311 -334 -647
-218 -343 -305 -600 -318 -935 -14 -374 74 -729 286 -1155 84 -168 212 -386
239 -406 44 -34 112 1 112 57 0 20 -27 76 -79 164 -230 385 -359 733 -402
1085 -14 116 -6 374 16 480 42 211 136 420 310 690 132 206 198 324 250 447
87 203 129 421 123 647 l-3 130 45 11 c25 6 61 14 81 17 l36 6 12 -156 c19
-251 68 -548 122 -740 l20 -73 -108 -113 c-222 -231 -368 -491 -438 -778 -33
-135 -32 -182 3 -249 38 -74 93 -111 171 -117 71 -5 121 10 167 51 47 41 61
71 94 201 45 176 118 327 226 467 l46 61 95 -194 c104 -214 229 -430 276 -478
59 -61 143 -83 227 -60 64 17 133 90 150 158 18 76 6 119 -71 249 -93 155
-162 283 -157 288 15 16 148 38 228 38 126 1 218 -23 349 -90 91 -47 114 -55
161 -55 106 0 187 59 215 157 38 129 -23 225 -197 313 -277 139 -584 164 -879
72 l-59 -18 -30 98 c-71 229 -116 436 -145 663 -23 184 -31 175 81 101 105
-69 227 -124 290 -132 34 -3 45 0 63 19 45 49 23 99 -56 129 -88 33 -182 85
-290 161 -83 58 -104 69 -139 69 -49 0 -90 -28 -110 -75 -11 -27 -11 -56 1
-176 28 -298 83 -563 175 -842 66 -199 79 -211 191 -167 212 84 438 97 651 39
83 -23 265 -108 290 -135 30 -34 32 -68 5 -99 -31 -37 -68 -36 -132 2 -66 39
-167 79 -251 99 -185 45 -490 -2 -554 -84 -34 -42 -26 -90 34 -210 30 -59 84
-156 121 -216 80 -133 87 -155 52 -190 -33 -33 -76 -34 -104 -3 -56 60 -237
393 -318 582 -26 61 -58 120 -71 132 -59 54 -128 39 -197 -41 -160 -185 -265
-390 -318 -616 -11 -46 -27 -92 -36 -102 -23 -26 -77 -23 -104 5 -18 19 -20
30 -15 77 8 80 71 270 125 380 90 182 197 327 355 477 60 58 96 99 96 112 0
11 -18 89 -39 173 -64 252 -100 489 -119 792 l-9 129 -36 34 c-44 40 -77 42
-209 15 -79 -16 -88 -16 -92 -3 -16 61 -27 123 -23 128 17 16 138 35 258 40
120 5 149 3 237 -17 129 -29 143 -24 219 79 180 244 444 395 731 417 77 7 84
6 107 -16 32 -30 33 -73 2 -104 -19 -18 -38 -24 -105 -30 -191 -16 -381 -106
-519 -247 -162 -166 -162 -221 -3 -328 144 -96 267 -134 435 -134 126 0 189
10 333 55 l103 32 27 -21 c34 -25 41 -76 15 -105 -35 -39 -200 -88 -363 -107
-109 -14 -130 -27 -130 -81 0 -57 26 -75 107 -72 127 5 361 65 448 114 115 66
141 233 52 334 -68 78 -147 96 -262 60 -293 -91 -467 -82 -660 35 -30 18 -55
39 -55 45 0 25 150 152 227 192 95 49 161 69 275 81 98 11 152 34 193 83 43
51 58 95 53 159 -6 82 -47 144 -118 182 -53 28 -59 29 -155 24 -167 -10 -368
-72 -511 -159 -126 -76 -263 -201 -349 -321 l-21 -28 -89 16 c-108 21 -330 15
-440 -11 -38 -9 -76 -17 -83 -17 -7 -1 -29 37 -51 88 -108 257 -252 488 -463
746 -114 139 -143 155 -193 104z"/>
<path d="M1815 1075 c-14 -13 -25 -32 -25 -42 0 -38 73 -294 121 -423 57 -155
250 -552 285 -586 13 -13 35 -24 49 -24 31 0 75 41 75 70 0 12 -31 81 -69 153
-39 73 -93 184 -121 247 -56 125 -161 431 -180 522 -20 103 -80 139 -135 83z"/>
</g>
</svg>
